<?xml version="1.0" encoding="UTF-8"?>
<svg id="katman_2" data-name="katman 2" xmlns="http://www.w3.org/2000/svg" viewBox="0 0 313.62 401.43">
  <defs>
    <style>
      .cls-1 {
        fill: #eab596;
      }

      .cls-1, .cls-2, .cls-3, .cls-4, .cls-5, .cls-6, .cls-7, .cls-8, .cls-9, .cls-10, .cls-11, .cls-12, .cls-13, .cls-14, .cls-15, .cls-16, .cls-17, .cls-18, .cls-19, .cls-20, .cls-21, .cls-22, .cls-23, .cls-24, .cls-25, .cls-26, .cls-27, .cls-28, .cls-29, .cls-30, .cls-31, .cls-32, .cls-33, .cls-34, .cls-35, .cls-36, .cls-37, .cls-38, .cls-39, .cls-40, .cls-41, .cls-42, .cls-43, .cls-44, .cls-45, .cls-46, .cls-47, .cls-48, .cls-49, .cls-50, .cls-51, .cls-52, .cls-53 {
        stroke-width: 0px;
      }

      .cls-2 {
        fill: #078ea7;
      }

      .cls-3 {
        fill: #251b17;
      }

      .cls-4 {
        fill: #e7c9b1;
      }

      .cls-5 {
        fill: #13333f;
      }

      .cls-6 {
        fill: #993833;
      }

      .cls-7 {
        fill: #ec896b;
      }

      .cls-8 {
        fill: #793a22;
      }

      .cls-9 {
        fill: #eeaa91;
      }

      .cls-10 {
        fill: #984f2f;
      }

      .cls-11 {
        fill: #3e4038;
      }

      .cls-12 {
        fill: #2d2d2a;
      }

      .cls-13 {
        fill: #c9d400;
      }

      .cls-14 {
        fill: #372115;
      }

      .cls-15 {
        fill: #0e6873;
      }

      .cls-16 {
        fill: #ca5e36;
      }

      .cls-17 {
        fill: #1c2b2f;
      }

      .cls-18 {
        fill: #84888f;
      }

      .cls-19 {
        fill: #8cb425;
      }

      .cls-20 {
        fill: #9c867c;
      }

      .cls-21 {
        fill: #00474f;
      }

      .cls-22 {
        fill: #090a09;
      }

      .cls-23 {
        fill: #b7c1b5;
      }

      .cls-24 {
        fill: #e9e6df;
      }

      .cls-25 {
        fill: #a1a799;
      }

      .cls-26 {
        fill: #e0e9e0;
      }

      .cls-27 {
        fill: #2a291c;
      }

      .cls-28 {
        fill: #5dc2d4;
      }

      .cls-29 {
        fill: #a4a096;
      }

      .cls-30 {
        fill: #219fad;
      }

      .cls-31 {
        fill: #033438;
      }

      .cls-32 {
        fill: #041a17;
      }

      .cls-33 {
        fill: #35391a;
      }

      .cls-34 {
        fill: #09141f;
      }

      .cls-35 {
        fill: #0e7895;
      }

      .cls-36 {
        fill: #29b1c5;
      }

      .cls-37 {
        fill: #e2735d;
      }

      .cls-38 {
        fill: #1d2617;
      }

      .cls-39 {
        fill: #b39b96;
      }

      .cls-40 {
        fill: #23170e;
      }

      .cls-41 {
        fill: #191a11;
      }

      .cls-42 {
        fill: #127d8c;
      }

      .cls-43 {
        fill: #f8faf9;
      }

      .cls-44 {
        fill: #dee4e7;
      }

      .cls-45 {
        fill: #1c4453;
      }

      .cls-46 {
        fill: #262114;
      }

      .cls-47 {
        fill: #a4673f;
      }

      .cls-48 {
        fill: #052621;
      }

      .cls-49 {
        fill: #36150e;
      }

      .cls-50 {
        fill: #0b433d;
      }

      .cls-51 {
        fill: #604333;
      }

      .cls-52 {
        fill: #3c100f;
      }

      .cls-53 {
        fill: #0e0606;
      }
    </style>
  </defs>
  <g id="katman_2-2" data-name="katman 2">
    <g>
      <g>
        <path class="cls-43" d="M230.18,91.04c8.33,4.61,14.56,4,11.25,10l-4.25.5-1.75-7,.25,6c-.93-.56-3.06-1.67-4-2-.07-.75-.95-.95-1-1-2.24-2.12-3.43-.09-4-3.75-.68-4.38.48-2.77,3.5-2.75Z"/>
        <path class="cls-22" d="M211.68,90.04c-1.92-.6-5.18-.48-5-2,1.65.23,4.03.26,5,2Z"/>
        <path class="cls-17" d="M230.68,97.54c.05.05.93.25,1,1-.33-.11-1.07.23-2-.5.08-.3-.18-.55.25-1,.03-.03.38.59.75.5Z"/>
        <path class="cls-22" d="M237.18,101.54c-1.33-.8-1.42-.95-1.5-1l-.25-6,1.75,7Z"/>
      </g>
      <g>
        <path class="cls-32" d="M33.2,283.02c32.76,68.71,113.72,90.69,182.23,64.49,19.11-7.31,40.39-23,53.74-38.5l1.5,1.5c-8.46,10.2-18.45,18.22-29,26.25l4.5.25c-6.46,4.58-12.82,9.22-19.5,13.5-3.42,1.45-5.71,1.88-6,2-.3-1.1-1.34-1.17-2.25-1-2.24.41-18.49,6.33-25.5,8-6.01,1.43-19.39,1.58-18,4.5-7.15-.68-29.6-.19-22.5,2.5,5.8,2.19,42.22-3.84,50.74-7-1.24.83-3.49,3.83.25,1.5l2.5,1c.3-3,2.06-.43,2.5-.5,5.48-.88,15.7-5.82,21.5-7.5,4.33-4.11-.46-1.99-.75-4,5.06-1.16,30.81-20.48,32.25-22,.45-.48-.43-.46-.25-1.5,14.13-12.56,32.71-42.87,35-61.49.17-1.39.45-2.52.5-4,2.51.93,2.18-2.34,3-7,2.35,3.75-1.46,13.27-2.5,17.25-.11.43.09,3.69,0,4-.08.29-3.48,1.76-1.5,5-3.56.58-1.33,3.01-1.5,3.5-.72,2.07-4.59,11.01-5.5,12.5-2.34,3.82-5.1,1.94-7,13.25-2.53,1.51-7.16,2.93-4.5,4.75-2.6,3.39-2.03,4.89,2,1.75-3.38,5.99-12.49,12.1-14.5,14-4.11-3.46-3.71,1-9.25,6-3.37,3.04-12.87,8.65-8.75,10-11.15,7.77-23.49,14.3-36.5,18.5-35.17,11.35-83.99,8.89-117.74-6.5-11.18-5.1-23.24-13.77-33.25-21-1.89-1.36-7.26-6.82-7.75-7-.89-.31-1.11.87-3.25,0-1.09-1.22-.94-1.9-1-2,.68.75,2.51.33,2.5-.75,0-1.46-11.71-13.28-18-23-3.69-5.7-8.88-15.46-11.5-21.75,2.36,1.78.02-5.32,3.5-1.25,1.3,1.52,10.49,18.88,22,33.25.73.92,2.35,3.82,2.5,4-4.73,2.2.22,2.53,1,3.75.04.07-.96.84-.5,1.5,1.94,2.76,17.41,18.98,18.5,12.25,5.68,4.36,11.77,7.98,18,11.5,15.76,8.89,33.39,14.71,51.49,17,1.67.21,10.77,1.67,11.5.75,2.52-3.2-7.57-2.69-10.5-3.25-17.61-3.37-35.05-6.82-50.99-15.5-13.1-7.13-29.76-21.28-39-33-3.12-3.96-16.57-24.65-20-30.25-2.12-3.46-4-8.79-5-10.5-.27-.46-1.34.1-2-1-2.59-4.33-1.15-9.19-7-8.75-1.3-5.04-2.81-10.34-3.5-15.5,3.02-.71-.4,2.86,2,2.25,0-4.23.38-7.15,1.5-11,1.08,3.98,5.48,25.02,7.75,26.25.69.37,3.21-.81,3.75-.25,1.34,1.4,4.41,16.3,8,18.25Z"/>
        <path class="cls-2" d="M210.18,364.51c1.83.07.87.76,0,1.5l-13.5,4.5c-1.21-.86-.95-.01-1,0-1.98.46-4.04,1.1-6,1.5-1.92.39-1.42.49-1.5.5-.32.06-3.9-.05-4.25,0-.33.05-1.17.99-1.25,1-2.2.26-5.22.98-5.5,1-4.87.32-18.7-1.01-25.25-1-.36,0-.69,1-.75,1-.33,0-.67,0-1,0-.05-.42.85-.83.25-1-1.28-.37-14.84-.85-19.25-1.5-.06,0-.34-.93-.75-1-1.9-.3-2.14.52-2.25.5-.32-.06-1.83-1.13-6.25-2-2.26-.45-2.61.53-2.75.5-.3-.06-.59-.29-1.5-.5-.61-.14-7.95-3.71-12-3-.46-.76-1.76-.74-2.5-1-7.1-2.51-18.33-8.57-25-12.5-4.89-2.88-14.7-9.01-18-13-1.3-1.57-2.58-2.12-1-3,10.01,7.23,22.07,15.9,33.25,21,33.75,15.39,82.57,17.85,117.74,6.5Z"/>
        <path class="cls-2" d="M46.2,132.04c-5.8,6.32-15.24,20.79-19.5,28.5-9.4,17.01-15.45,36.58-17,55.99-.69,8.64-.8,17.37,0,26,.15,1.65.28,3.36.5,5,.69,5.16,2.2,10.46,3.5,15.5,1.14,4.43,5.47,13.07,5,16.5-1.82-4.09-2.4-3.31-2.5-3.5-2.02-3.67-2.01-8.24-4-8-.03-.16.03-.34,0-.5-.58-3-.94-6.22-1.5-9.25-.08-.42-.99-.69-1-.75-1.12-6.49-2.42-12.87-2.5-19.5,0-.26,1.46-1.34-.5-5,1.01-5.93.61-12.03,1-18,1.13-.61,1.53-3.72.5-4.5.09-1.45.45-2.93.5-4.5,1.07-.58,1.54-3.41.5-4,.92-2.17,6.53-23.48,6.5-25,1.19-.49,1.52-2.83,2-4,1.32-3.22,2.63-6.54,4.5-9.5.51-.81,1.21-1.54,1.5-2.5,3.27-3.87,3.44-5.03,4.5-9.5,1.53.2,1.39-1.29,2-2,1.2-1.41,2.36-1.56,3-4.5,2.81-4.87,7.98-9.51,11-13.5l2,.5Z"/>
        <path class="cls-31" d="M47.7,313.51c-1.27,0-2.23-.35-2,1-11.51-14.37-20.7-31.73-22-33.25-3.48-4.07-1.14,3.03-3.5,1.25-.3-.73-.67-1.81-1.5-2,.07-.2-.05-.65,0-1,.47-3.43-3.86-12.07-5-16.5,5.84-.44,4.41,4.42,7,8.75.66,1.1,1.73.54,2,1,1,1.7,2.88,7.04,5,10.5,3.43,5.59,16.88,26.29,20,30.25Z"/>
        <path class="cls-43" d="M8.7,85.54c-8.66,11.1-2.28,20.53,3,30.5-4.03,1.2-5.01-5.42-10.5-9.75-5.06-12.42,7.43-24.19,8-23,.27.57-1.59,2.22-.5,2.25Z"/>
        <path class="cls-2" d="M20.2,282.52c2.62,6.29,7.81,16.05,11.5,21.75,6.29,9.71,17.99,21.54,18,23,0,1.08-1.82,1.5-2.5.75-1.56-2.5-4.62-4.63-6.5-7-.04-.06-.4-.22-1-1,1.19-.24-1.06-1.64-2-2.5-.36-.46-3.89-7.3-6-10,0-.77-1.94-.91-2-1q-5.75-12.5-11.5-25c.02-.05.06.21.5-1,.83.19,1.2,1.27,1.5,2Z"/>
        <path class="cls-46" d="M29.7,306.52c-4.87-6.93-8.09-15.26-13-22.25-.61-2.56,1.45-2.57,1.5-2.75q5.75,12.5,11.5,25Z"/>
        <path class="cls-22" d="M47.2,328.01c.06.09-.09.78,1,2-1.59-.65-2.72-1.84-4.25-2.5-2.58-1.12-4.99,2.86-3.25-6.5,1.88,2.36,4.94,4.5,6.5,7Z"/>
        <path class="cls-46" d="M31.7,307.52c2.11,2.7,5.64,9.54,6,10-2.43-2.22-3.81-4.34-4.75-5-.35-.24-6.13.85-1.25-5Z"/>
        <path class="cls-41" d="M16.2,276.02c-3.22,4.34-3.7-6.39-4-8,1.99-.24,1.98,4.33,4,8Z"/>
        <path class="cls-33" d="M12.2,267.52c-.98-7.35-6.89-7.98-2.5-10,.01.06.92.33,1,.75.56,3.03.92,6.25,1.5,9.25Z"/>
        <path class="cls-22" d="M30.2,149.53c-.61.71-.47,2.2-2,2,.4-1.68,1.46-8.93,1.5-10.5l.5,8.5Z"/>
        <path class="cls-27" d="M7.2,238.02c-4.29-1.51-.55-4.68-.5-5,1.96,3.66.5,4.74.5,5Z"/>
        <path class="cls-52" d="M17.7,173.03c-.48,1.17-.81,3.51-2,4,0-.32-3.53-4.38,2-4Z"/>
        <path class="cls-47" d="M9.2,202.03c1.04.59.57,3.42-.5,4,.01-.49-1.46-1-1-3.25.7-1.04,1.47-.67,1.5-.75Z"/>
        <path class="cls-3" d="M7.7,215.03c.1-1.51.41-3.08.5-4.5,1.03.78.63,3.89-.5,4.5Z"/>
        <path class="cls-50" d="M39.7,320.01c-.64-.83-1.33-1.64-2-2.5.94.86,3.19,2.26,2,2.5Z"/>
        <path class="cls-31" d="M23.7,161.03c-.29.96-.99,1.69-1.5,2.5-.04-2.8,1.41-2.39,1.5-2.5Z"/>
        <path class="cls-36" d="M291.67,301.02c-.04.07.06.66-.5,1.5-4.07,6.15-8.52,12.81-13.5,18.25-3.17,3.46-6.51,3.27-8,9.25-.11.1-2.31,1.08-2.75,1-1.03.95-2.09,3.36-2.25,3.5-2.91,2.6-8.2,7.67-10.5,9.5-.78.62-1.73,1.43-2.5,2-7.51,5.57-24.74,14.76-33.5,18-3.66.51-3.32,1.44-3.5,1.5-.21.07-.68-.55-4.5.5.87-.74,1.83-1.43,0-1.5,13-4.2,25.34-10.73,36.5-18.5,10.56-7.35,9.98-8.39,18-16,2-1.9,11.12-8,14.5-14,2.46-1.92,4.63-5.44,6.5-8,1.59-2.17,3.64-5.21,5-7.5l1,.5Z"/>
        <path class="cls-3" d="M103.19,365.51l-2,1.5c-1.55-.59-4.43-.12-4.75-3-9.58.22-8.52-3.74-9-4-6.97,1.78-5.83-2.23-10.25-5.5.06-.06-.38-.57,1-1.5,6.67,3.93,17.9,9.99,25,12.5Z"/>
        <g>
          <path class="cls-22" d="M284.67,393.5c.34.34,1.05.75,1.5,1-.07.24,1.1.72-1,4.5-1.4.39-2.51,1.3-3.75,2-15.08.14-30.17-.19-45.24,0-54.81.68-109.67.45-164.48,0-12.16-.1-24.33.07-36.5,0-14.92-11.89,13.66-5.79,16-7.75l11.5-49.49-1.25-1.25c-2.6,2.05-15.77-9.88-8.5-8.5.73.14,5.43,5.59,7.25,6,3.3,3.99,13.1,10.12,18,13-1.38.93-.94,1.44-1,1.5-.1.09-.81-.46-2,1.75-1.55,2.86-12.41,36.69-10.75,37.75q42.99-1.75,85.99-3.5l.75-16c.06,0,.39-1,.75-1,6.54-.01,20.37,1.32,25.25,1-2.85,8.16-11.65-12.65-7.75,16,28.69-.42,57.31,2.19,85.99,3-2.73-13.39-7.07-26.46-12.5-39-3.18,2.81-7.24,2.38-7,7.5-.46-6.88-8.31,3.22-17.75,4.5v-2.5c8.75-3.24,25.98-12.42,33.5-18,2.11-.84,2.24,6.79,4.25,11,2.49-2.11-1.07-9.37-1.75-13,2.29-1.83,7.59-6.9,10.5-9.5,4.88-.29,6.78-5.3,7-3.25q-8.25,7-16.5,14c2.84,6.81,11.78,44.41,13,46.49.55.93.81,1.19,1.75,1.75h14.75Z"/>
          <g>
            <path class="cls-23" d="M127.19,397.5c.1-1.03,1.87-.08,2.5-.75.73-.77-1.57-1.43-1-2.75,17.24-.48,34.5-.56,51.74-.5l70.74,2.75c-41.29,1.81-82.66,1.5-123.99,1.25Z"/>
            <path class="cls-25" d="M128.69,394c-.57,1.32,1.73,1.98,1,2.75-.63.67-2.4-.28-2.5.75-19.5-.12-39-.06-58.49-.75,20.03-.13,39.99-2.19,59.99-2.75Z"/>
            <g>
              <path class="cls-22" d="M251.67,346.01c.77-.57,1.72-1.37,2.5-2,.68,3.63,4.24,10.89,1.75,13-2.01-4.21-2.14-11.84-4.25-11Z"/>
              <path class="cls-29" d="M266.42,394c4.89-1.46,4.45,5.25-.5,3.5-1.89-.67-.92-3.08.5-3.5Z"/>
            </g>
            <path class="cls-26" d="M50.45,394c.39.16.15,1.04.5,1,9.51-1.11-3.46,7.43-.5-1Z"/>
          </g>
        </g>
        <path class="cls-39" d="M218.18,364.01v2.5c-1.29.17-2.7-.12-4,0,.18-.26.42-.68.5-1,.18-.06-.16-.99,3.5-1.5Z"/>
        <path class="cls-22" d="M160.68,84.54c23.75.06,43.27,3.31,64.99,13.5,1.34.63,2.68,1.32,4,2,50.52,26.07,77.77,68.95,80.99,125.73l1-.25c.06,3.5-.05,7,0,10.5-.26,1.67.5,3.49.5,4-1.83,0-1.39,6.59-2.5,12.25-2.96,15.06-11.13,34.96-19,48.24-1.36,2.29-3.41,5.33-5,7.5-1.63.23-2.62.68-4,1.5,1.9-11.3,4.66-9.43,7-13.25.91-1.48,4.77-10.43,5.5-12.5.17-.49-2.06-2.92,1.5-3.5-1.98-3.24,1.42-4.71,1.5-5,.09-.31-.11-3.57,0-4,1.04-3.98,4.85-13.5,2.5-17.25,1.83-10.42,1.1-29.58,0-40.5.31.03.98-.61,1-.75.73-4.3-3.86-29.61-5.5-34-.15-.39-.67-.25-1-.25-1.01-4.18-4.64-17.97-9.5-14.5-2.03,1.38-3.77-7.14-8-11-.1-.62.15-1.54,0-2-.15-.45-.02-6.71-3.75-8-2.08-.72-2.62.93-2.75,1-.85.44-1.54,1.22-2.5,1.5-2.52-2.98-7.62-8.28-10.5-11,2.77-1.94-5.99-5.76-1.75-6.5,2.24-.39,1.01,3.57,7.25,4,4.43.31,4.19-.54-.75-5-.83-.75-18.49-13.55-16.25-8.5-.06-.05-.79.03-1.5-.5,1.9-2.93-1.2-3.67-5-6-9.91-6.07-12.12-4.7-12.75-5-7.48-3.56-5.66-3.84-6-4-1.45-.69-3.81-.91-5-1.5-6.5-3.22-15.32-11.4-22.75-8.5-.29-3.6-2.91-1.9-5-2.5-1.89-.54-3.52-1.12-5.5-1.5-3.58-.68-7.05-1.67-10.75-1.5-1.06.48-1.38,3.96-1.75,5-.42,1.19-1.85,3.09-1.75,4,10.19.96,30.75,3.88,39.5,7.5.53.22,1.49.68,1.25,1.5-49.95-17.18-100.84-6.92-141.73,26-23.22,18.69-38.82,45.33-44.24,74.49-5.19,27.89-1.67,51.46,10.5,76.99-3.59-1.94-6.66-16.85-8-18.25-.54-.56-3.06.62-3.75.25-2.27-1.23-6.67-22.26-7.75-26.25-1.12,3.85-1.49,6.77-1.5,11-2.4.61,1.02-2.96-2-2.25-.22-1.64-.35-3.35-.5-5,2.95-4.43-.86-8.86,3-9.75-1.59-9.25,1.16-13.57,1.5-16,.05-.34-1.05-.16-1-.5.05-.4.94-.1,1-.5.9-6.12,1.8-12.56,2-18.75,1.54-6.07,2.97-12.32,5-18.25,2.17-6.32,9.02-18.33,5.5-18.25,4.26-7.7,13.7-22.18,19.5-28.5,8.08-8.8,22.56-18.99,33-25,4.07-2.34,10.46-6.12,14.5-8,.19-.09,1.82-.55,4-1.5,1.93-.84,4.04-1.75,6-2.5,20.32-7.81,35.37-10.55,56.99-10.5Z"/>
        <path class="cls-2" d="M29.7,189.53c-2.41,7.82-4.19,15.84-5,24-10.14,101.88,87.14,165.26,180.23,135.48,22.58-7.22,41.54-19.15,57.74-36.5-.82,3.4,4.78-2.86,6-4.25,6.14-6.97,10.42-15.9,16-22.75-.17.33-.33.67-.5,1-3.93,7.56-9.44,16.05-15,22.5-13.35,15.5-34.63,31.19-53.74,38.5-68.51,26.19-149.47,4.22-182.23-64.49-12.17-25.53-15.68-49.11-10.5-76.99.72-.59,2.05-.31,2.5-1.25.54-1.11,2.85-18.3,4.5-15.25Z"/>
        <path class="cls-22" d="M296.17,265.02c-2.28,18.62-20.87,48.93-35,61.49-3.63,3.23-10.71,7.46-15,10.5l-4.5-.25c10.54-8.02,20.54-16.04,29-26.25,6.16-7.43,11.09-14.92,15.5-23.5,1.48-2.88,3.23-5.77,4.5-8.75,1.85-4.34,3.63-12.04,5.5-13.25Z"/>
        <path class="cls-21" d="M296.17,194.03c1.12,6.32,2.44,8.95,3.5,19.5,1.1,10.91,1.83,30.08,0,40.5-.82,4.66-.49,7.92-3,7,.07-2.14,1.08-5.62-1.5-5.5,4.09-20.25,3.43-42.03-2-61.99l3,.5Z"/>
        <path class="cls-31" d="M220.68,352.51c-2.87,1.18-16.71,6.48-17.5,7-8.52,3.16-44.94,9.19-50.74,7-7.1-2.69,15.35-3.18,22.5-2.5-1.39-2.92,11.98-3.07,18-4.5,7.01-1.67,23.25-7.59,25.5-8,.91-.17,1.95-.1,2.25,1Z"/>
        <path class="cls-31" d="M86.69,346.51c15.95,8.68,33.38,12.13,50.99,15.5l-1,2.5c-18.11-2.29-35.74-8.11-51.49-17l1.5-1Z"/>
        <path class="cls-21" d="M47.7,313.51c9.23,11.71,25.89,25.87,39,33l-1.5,1c-6.23-3.52-12.32-7.14-18-11.5-5.55-4.26-14.56-12.27-19-17.5-.15-.18-1.77-3.08-2.5-4-.23-1.35.73-.99,2-1Z"/>
        <path class="cls-22" d="M203.18,359.51c.78-.52,14.63-5.82,17.5-7,.29-.12,2.58-.55,6-2,.37-.16,1.44.33,2.5-.5.29,2.01,5.08-.12.75,4-5.8,1.68-16.02,6.62-21.5,7.5-.44.07-2.2-2.5-2.5.5l-2.5-1c-3.74,2.33-1.49-.67-.25-1.5Z"/>
        <path class="cls-22" d="M67.2,336.01c-1.09,6.73-16.55-9.49-18.5-12.25-.46-.66.54-1.43.5-1.5-.78-1.22-5.73-1.55-1-3.75,4.44,5.23,13.44,13.24,19,17.5Z"/>
        <path class="cls-31" d="M296.67,261.02c-.05,1.48-.33,2.6-.5,4-1.87,1.21-3.64,8.91-5.5,13.25-1.27,2.98-3.02,5.87-4.5,8.75l-2-.5c.17-.33.33-.67.5-1,4.75-9.42,8.41-19.66,10.5-30,2.58-.12,1.57,3.36,1.5,5.5Z"/>
        <path class="cls-22" d="M264.67,330.01c-8.01,7.61-7.44,8.64-18,16-4.12-1.35,5.37-6.96,8.75-10,5.54-5,5.14-9.46,9.25-6Z"/>
        <path class="cls-15" d="M229.18,350.01c-1.06.83-2.13.34-2.5.5,6.67-4.28,13.03-8.92,19.5-13.5,4.29-3.04,11.37-7.27,15-10.5-.18,1.04.7,1.02.25,1.5-1.43,1.52-27.19,20.84-32.25,22Z"/>
        <path class="cls-32" d="M286.17,287.02c-4.41,8.57-9.33,16.06-15.5,23.5l-1.5-1.5c5.56-6.45,11.07-14.94,15-22.5l2,.5Z"/>
        <path class="cls-32" d="M285.67,308.02c-1.87,2.56-4.04,6.08-6.5,8-4.02,3.14-4.6,1.64-2-1.75-2.66-1.82,1.97-3.24,4.5-4.75,1.38-.82,2.37-1.27,4-1.5Z"/>
        <path class="cls-21" d="M136.69,364.51l1-2.5c2.93.56,13.02.05,10.5,3.25-.73.92-9.83-.54-11.5-.75Z"/>
        <g>
          <path class="cls-22" d="M279.67,41.05c3.86,3.34,4.61,3.66,3,9-.77,2.55-2.28,4.08-4,6l-2.5-1v-.5c1.85-1.58,2.86-4.04,3.5-6.5,1.42-5.45,2.2-8-5.5-5.5.23-.22.34-3.27,5.5-1.5Z"/>
          <path class="cls-12" d="M279.67,48.05l-7-3.5c.57-.82.42-.97,1.5-2,7.7-2.5,6.92.05,5.5,5.5Z"/>
        </g>
        <g>
          <path class="cls-27" d="M220.18,4.05c11.35,2.22,14.2,4.87,17.5,6,3.13,3.23,5.75,6.01,8,10-2.17-.37,2.44,4.34-1.75,2.5-1.26-.55-2.7-3.58-4-4.5-5.79-4.08-11.8-6.6-18-9.5-9.16-.52-17.43-3.92-26.5-2-2.09-1.94-4.72-.48-5-.5-.39-.02-.12-.98-.5-1-3.16-.18-12.12,1.22-20-1h-15c-4.61-.4-36.05,4.2-37.5,3-.49-.41-.17-1.39-.25-2,6.75-.73,13.03-.71,19.75-1,.38-.02.12-.98.5-1,11.28-.46,34.43-.38,45.99,0,11.57.38,30.87,4.48,36.75,1Z"/>
          <path class="cls-11" d="M220.18,4.05c-5.88,3.48-25.18-.62-36.75-1-11.57-.38-34.72-.46-45.99,0-.38.02-.12.98-.5,1-6.72.29-13,.27-19.75,1-2.44.27-5.91-1.33-6.25,1.5-.23-.32-3.09-.53-3.25-.5l-1-2c5.1-.8,12.19-1.34,12-2.5,26.28-2.33,76.18-2.45,101.49,2.5Z"/>
          <path class="cls-12" d="M118.69,1.55c.19,1.16-6.9,1.7-12,2.5-9.88,1.55-2.9.84-3,2.75-.07,1.47-12.45-1.35-14.5,3.75-6.68,1.71-5.68,2.86-6,3-2.16.94-3.47.35-6.5,2.5-1.33-9.78,20.69-11.93,28.5-13,4.47-.61,9.01-1.1,13.5-1.5Z"/>
          <path class="cls-22" d="M83.19,13.55c2.14,2.11-8.19,6.94-9.5,8.75-.66.91-1.17,7.12-4,5.25,1.13-4.98,2.9-8.21,7-11.5,3.02-2.15,4.34-1.56,6.5-2.5Z"/>
          <path class="cls-12" d="M106.69,4.05l1,2c-1.11.23-3.59,2.41-6.25,3-.91.2-6.87-.58-11.5,2.5-1.05.26-.69-1.02-.75-1,2.05-5.1,14.42-2.28,14.5-3.75.1-1.91-6.88-1.2,3-2.75Z"/>
          <g>
            <path class="cls-22" d="M245.67,20.05c2.66,4.74,3.35,6.52,4,12,.6,5.06.43,9.72,0,14.75,6.23,1.35,14.83,8.92,17.75,10.25,5.45,2.49-1.91-2.21,5.25-12.5l7,3.5c-.64,2.46-1.65,4.91-3.5,6.5-.48.41-.46.79-1,1l.25-2.5c-3.54,3.79-.9,2.38-.25,2.5.13.03.13,2.48,1-.5l2.5,1c-.5.56-5.39,4.15-5.25,4.5,7.6,5.28,25.43,15.61,31.25,20.5,8.52,7.16,11.19,13.64,7,24.5-1.69,4.38-15.51,25.78-19,29,0-.61-.64-.75-1-1,4.39-8.73,17.44-23.46,18.5-32.5.04-.33-.02-.67,0-1,.44-8-2.5-11.7-8.25-16.5-7.72-6.45-49.23-33.03-57.74-34.5-5.43-.93-12.24-1.22-17,2-4.48,3.03-13.84,22.56-17.5,28.5-.08-.06-1.42.23-1.5-1.25,10.67-16.01,12.33-37.51,36.75-32.25,3.91-28.35-27.41-31.77-47.99-33.5-21.7-1.82-92.99-2.31-110.49,7-9.71,5.17-14.89,14.83-12.25,25.75,18.05-3.94,24.6,10.96,33,26.75.86,1.61,1.86,3.31,3,4.75.2,2.02-1.41,1.68-1.5,1.75-4.35-5.66-12.83-22.28-16.5-26-5.83-5.9-17.37-4.53-24.75-2-3.58,1.23-50.57,31.68-53.49,34.5-4.86,4.67-6.91,10.98-5.75,17.5,1.25,6.99,12.74,22.89,16.5,30.5-.11.04-1.34,1.09-1.75,1.5-3.92-5.91-7.89-12.15-11.25-18.5-5.28-9.97-11.66-19.4-3-30.5,4.01-5.14,28.7-18.79,35.5-24.75.19-.92-.97-1.18-1-1.25-1.39-3.02-6.86-6.87-7.5-8.75-2.23-6.59,5.43-13.67,11.5-6,4.93,6.24.51,11.95,2.75,12.25l19.75-11.25c-1.31-6.63-1.47-11.78,0-18.25,2.83,1.87,3.34-4.34,4-5.25,1.31-1.81,11.63-6.64,9.5-8.75.32-.14-.68-1.29,6-3,.06-.02-.3,1.26.75,1,4.63-3.08,10.59-2.3,11.5-2.5,2.66-.59,5.13-2.77,6.25-3,.16-.03,3.02.18,3.25.5.34-2.83,3.81-1.23,6.25-1.5.08.61-.24,1.59.25,2,1.45,1.2,32.89-3.4,37.5-3h15c7.88,2.22,16.84.82,20,1,.38.02.11.98.5,1,.28.02,2.91-1.44,5,.5,9.06-1.92,17.34,1.48,26.5,2,6.2,2.9,12.21,5.42,18,9.5,1.3.92,2.74,3.95,4,4.5,4.19,1.84-.42-2.87,1.75-2.5Z"/>
            <g>
              <path class="cls-9" d="M310.17,100.04c-1.9.49-.05-3.71-2.5-8.75-2.77-5.72-48.12-34.63-56.24-38.75-3.93-1.99-7.62-2.55-7.25-3.5,8.51,1.46,50.02,28.05,57.74,34.5,5.75,4.8,8.69,8.5,8.25,16.5Z"/>
              <g>
                <path class="cls-27" d="M38.2,49.05c2.18-.44,2.97-3.52,2-5.5,4.05-.77,1.21.79,4.5,2.25-2.27.81.31,4-1.75,5.25-2.54,1.54-3.69.11-4.75-2Z"/>
                <path class="cls-11" d="M40.2,43.55c.98,1.98.18,5.06-2,5.5-1.31-2.6-.54-5.02,2-5.5Z"/>
              </g>
              <g>
                <path class="cls-44" d="M275.17,55.55c-.65-.12-3.29,1.29.25-2.5l-.25,2.5Z"/>
                <path class="cls-18" d="M276.17,54.55v.5c-.87,2.98-.87.53-1,.5.54-.21.52-.59,1-1Z"/>
              </g>
            </g>
          </g>
        </g>
        <path class="cls-22" d="M214.68,365.51c-.08.32-.32.74-.5,1-2.45,3.51-13.87,7.12-17.5,4l13.5-4.5c3.82-1.05,4.29-.43,4.5-.5Z"/>
        <path class="cls-22" d="M117.69,369.51c.21,3.41-7.24,1.54-10.75.5-.43-.13-.2-.98-.25-1l-1-2.5c4.04-.71,11.39,2.86,12,3Z"/>
        <path class="cls-22" d="M128.19,371.51c1.43,3.43-9.74,2.63-9-1.5.14.03.49-.95,2.75-.5,4.41.87,5.93,1.94,6.25,2Z"/>
        <path class="cls-22" d="M150.19,374.51c-4.6.02-11.73-2.4-12.75.5-2.59-.89-6.96.76-6.25-3,4.41.65,17.97,1.13,19.25,1.5.6.17-.3.58-.25,1Z"/>
        <path class="cls-3" d="M188.18,372.51c-1,3.85-2.91,3.69-5.5,1,.08,0,.92-.95,1.25-1,.34-.05,3.93.06,4.25,0Z"/>
        <path class="cls-22" d="M195.68,370.51c.54,3.45-3.8,3.72-6,1.5,1.96-.4,4.02-1.04,6-1.5Z"/>
        <path class="cls-20" d="M105.69,366.51l1,2.5c-1.94-.6-3.62-1.28-5.5-2l2-1.5c.74.26,2.03.24,2.5,1Z"/>
        <path class="cls-32" d="M16.2,197.03c-.86,3.4-2.16,8.81-4,11.25,1.82,3.01,1.61,9.15-2.5,8.25,1.55-19.41,7.59-38.98,17-55.99,3.52-.08-3.33,11.93-5.5,18.25-2.03,5.93-3.46,12.18-5,18.25Z"/>
        <path class="cls-32" d="M9.7,242.52c-.8-8.63-.69-17.36,0-26,4.11.9,4.32-5.24,2.5-8.25,1.84-2.43,3.14-7.85,4-11.25-.2,6.19-1.1,12.63-2,18.75-.06.4-.94.1-1,.5-.05.34,1.05.16,1,.5-.34,2.43-3.09,6.75-1.5,16-3.86.88-.05,5.32-3,9.75Z"/>
        <path class="cls-36" d="M78.19,105.04c2.12-.12.08,1.86,1,2-10.44,6.01-24.92,16.19-33,25l-2-.5c.42-.55,1.52-2.26,2-3,3.19-.98,5.07-3.97,7-6.5,6.5-5.66,20.54-13.35,25-17Z"/>
        <path class="cls-3" d="M46.2,128.54c-.48.74-1.58,2.45-2,3-3.02,3.99-8.19,8.63-11,13.5l3.5-10.75c5.25-1.07,9.35-9.38,11-7.5-.61.52-1.06,1.07-1.5,1.75Z"/>
        <g>
          <path class="cls-43" d="M53.2,122.04c-1.93,2.53-3.81,5.52-7,6.5.44-.68.89-1.23,1.5-1.75-1.65-1.88-5.75,6.42-11,7.5l-3.5,10.75c-.64,2.94-1.8,3.09-3,4.5l-.5-8.5c.02-.97.67-1.29.5-2.25-2.85-.52-4.84-2.94-5-5.75,1.46-.66,2.63-1.76,4-2.5,5.99-3.25,14.68-7.96,20.25-11.5,7.81-4.97,12.89-11.31,18.25-11.75-3.88,1.52-14.44,17.71-9,7.5.03-1.1-.26-.81-1,0-1.29,1.41-3.06,5.37-4.5,7.25Z"/>
          <path class="cls-10" d="M10.7,100.54c4.61,10.88,11.6,20.49,18.5,30-1.37.74-2.54,1.84-4,2.5-.14.06-.36-.06-.5,0-3.76-7.61-15.25-23.51-16.5-30.5,1.43-2.26,2.36-1.91,2.5-2Z"/>
          <path class="cls-16" d="M92.19,52.55c-2.79-.37-2.29.63-3,1-12.67,6.56-33.15,21.37-47.74,30-10.04,5.93-20.91,10.72-30.75,17-.13.09-1.07-.26-2.5,2-1.16-6.51.89-12.82,5.75-17.5,2.93-2.81,49.91-33.26,53.49-34.5,7.38-2.54,18.92-3.9,24.75,2Z"/>
          <path class="cls-10" d="M92.19,52.55c3.67,3.72,12.15,20.33,16.5,26-1.87,1.55-3.75,1.85-4,2l-15.5-27c.71-.37.21-1.37,3-1Z"/>
          <path class="cls-22" d="M104.69,80.54c-2.09,1.28-34.8,20.1-33.25,21.5l8,1c.58.51-.31,1.23-1.25,2-4.45,3.65-18.5,11.34-25,17,1.44-1.88,3.21-5.84,4.5-7.25.74-.81,1.03-1.1,1,0-5.44,10.21,5.12-5.98,9-7.5-5.36.44-10.43,6.78-18.25,11.75-5.56,3.54-14.26,8.25-20.25,11.5-6.89-9.51-13.89-19.12-18.5-30,9.84-6.27,20.7-11.06,30.75-17,14.6-8.63,35.08-23.43,47.74-30l15.5,27Z"/>
        </g>
        <path class="cls-28" d="M231.68,98.54c.94.33,3.07,1.44,4,2,.08.05.17.2,1.5,1,2.1,1.27,4.45,2.69,6.5,4,2.02,1.29,3.99,3.12,6,4.5,2.26,1.55,4.83,2.89,7,4.5,1.16.86,2.35,1.61,3.5,2.5,3.73,2.9,7.94,8.12,10.5,8.5,1.65,4.85,1.65.31,5,4.5,2.58,3.22,4.31,8.22,8.5,10,.88,1.32,1.65,2.66,2.5,4,1.05,1.64,1.43,1.89,1.5,2,1.48,2.39,3.14,5.06,4.5,7.5-1.12,1.32.3,2.22,1.5,3,.87,1.63,1.63,3.73,2.5,5.5,1.51,5.07,4.56,13.76,7.5,17.5,1.41,4.83,1.7,12.2,4.5,17,.51,2.44.6,5.08,1,7.5,1.59,9.58,1.31,15.45,1.5,16.25.09.37.66.25,1,.25.02.84-.55,2.12-.5,5l-1,.25c-3.22-56.78-30.47-99.66-80.99-125.73-.52-1.57-.18-1.35,0-2,.93.73,1.67.39,2,.5Z"/>
        <path class="cls-30" d="M312.17,240.02c0,.68,0,1.31,0,2,.02,3.82-.66,7.58-.5,11.5-1.96.8-1.42,5.68-1.5,6-.5,2.07-3,9.45-4,12.5l-2,6c-.05.09-.36-.67-1.5,1.5-1.22,2.32-2.92,4.66-2.5,7.5-2.88,4.69-5.49,9.36-8.5,14l-1-.5c7.87-13.29,16.04-33.18,19-48.24,1.11-5.66.67-12.24,2.5-12.25Z"/>
        <path class="cls-22" d="M269.67,330.01c1.49-5.98,4.83-5.79,8-9.25,4.98-5.44,9.42-12.1,13.5-18.25,3.72,4.19-15.94,22.27-21.5,27.5Z"/>
        <path class="cls-22" d="M304.17,179.53c-2.94-3.74-5.99-12.43-7.5-17.5,1.61,3.26,3.62,6.62,5.5,9.75,1.23,3.34,1.37,5.6,2,7.75Z"/>
        <path class="cls-22" d="M300.17,287.02c-.42-2.84,1.28-5.18,2.5-7.5,2.52,4.84-2.03,6.74-2.5,7.5Z"/>
        <path class="cls-21" d="M312.17,220.53c-.34,0-.91.12-1-.25-.19-.79.09-6.67-1.5-16.25l1-.5c.41,5.69,1.34,11.27,1.5,17Z"/>
        <path class="cls-14" d="M310.67,203.53l-1,.5c-.4-2.42-.49-5.06-1-7.5,4.28.16,1.79,4.07,2,7Z"/>
        <path class="cls-53" d="M310.17,259.52c.08-.32-.46-5.2,1.5-6,.1,2.52,3.38,2.75-1.5,6Z"/>
        <path class="cls-34" d="M312.17,242.02c0-.69,0-1.32,0-2,0-.51-.76-2.33-.5-4,1.99,1.21,2.08,4.25.5,6Z"/>
        <path class="cls-3" d="M304.17,278.02l2-6c-.68,2.06-.84,5.5-1,5.75-.3.47-.95.17-1,.25Z"/>
        <path class="cls-32" d="M294.17,156.53c-1.2-.78-2.62-1.68-1.5-3,.57,1.03.97,2.01,1.5,3Z"/>
        <path class="cls-36" d="M208.68,105.54c16.97,5.84,35.41,16.66,48.49,29,2.88,2.72,7.98,8.01,10.5,11,1.55,1.84,5.35,6.4,6.5,8,4.1,5.69,8.05,12.63,11,19,3.01,6.5,6.13,14.11,8,21,5.43,19.97,6.09,41.74,2,61.99-2.09,10.34-5.75,20.57-10.5,30-5.58,6.85-9.85,15.78-16,22.75-1.22,1.38-6.82,7.65-6,4.25,15.97-17.1,29.33-42.34,32-65.74.78-6.85.21-13.41,0-20.25-.03-.83.04-1.67,0-2.5-1.53-31.78-11.27-58.11-33-81.74-21.81-23.72-56.98-39.69-88.99-41.74-4.4-.28-10.9-.12-15.5,0-52.4,1.32-105.56,32.54-124.98,82.49-.87,2.23-1.78,4.17-2.5,6.5-1.65-3.05-3.96,14.14-4.5,15.25-.45.94-1.78.66-2.5,1.25,5.42-29.16,21.02-55.8,44.24-74.49,40.9-32.92,91.78-43.17,141.73-26Z"/>
        <path class="cls-31" d="M294.17,178.53c.06.25-.82.83-.5,2.25,1.02,4.55,1.69,8.69,2.5,13.25l-3-.5c-1.87-6.89-4.99-14.5-8-21,5.87-.34.36-1.99-.5-8.5,4.86-3.47,8.49,10.32,9.5,14.5Z"/>
        <path class="cls-36" d="M159.18,82.54c1.5-.02,3.12.32,4.5-.5v1c-.48.06-2.7.9-3,1.5-21.62-.05-36.68,2.69-56.99,10.5-3.19-8.62,5.77-6.94,11.25-4.5,5.1-3.27,16.49-3.26,16.75-7,.15-.04.34.04.5,0,1.2-.28,3.03.67,3.5-1,6.25.19,16.92.09,23.5,0Z"/>
        <path class="cls-42" d="M174.68,83.04h2c9.5.75,18.87,4.02,28.25,5.5,1.19.19,1.39-.55,1.75-.5-.18,1.52,3.08,1.4,5,2,3,.93,15.43,6.93,14,8-21.72-10.18-41.24-13.44-64.99-13.5.3-.6,2.52-1.44,3-1.5,3.29-.44,7.65-.17,11,0Z"/>
        <path class="cls-31" d="M262.67,132.04c-5.44-4.72-11.21-9.23-17-13.5-2.24-5.05,15.42,7.75,16.25,8.5,4.94,4.46,5.18,5.3.75,5Z"/>
        <path class="cls-31" d="M182.18,89.04c-.11,1.11.17,2.96,0,3.25-1.03,1.69-12.19,2-12.5.25.37-1.04.69-4.52,1.75-5,3.7-.17,7.17.82,10.75,1.5Z"/>
        <path class="cls-48" d="M276.67,153.03c4.23,3.86,5.97,12.38,8,11,.86,6.51,6.37,8.16.5,8.5-2.95-6.37-6.9-13.31-11-19,.93-1.16,1.07-1.4,2.5-.5Z"/>
        <path class="cls-32" d="M299.67,213.53c-1.06-10.55-2.38-13.18-3.5-19.5-.81-4.55-1.48-8.7-2.5-13.25-.32-1.42.56-2,.5-2.25.33,0,.85-.14,1,.25,1.64,4.38,6.23,29.69,5.5,34-.02.14-.69.78-1,.75Z"/>
        <path class="cls-32" d="M276.67,151.03c.15.45-.1,1.38,0,2-1.43-.9-1.57-.66-2.5.5-1.15-1.6-4.95-6.16-6.5-8,.96-.28,1.65-1.06,2.5-1.5l6.5,7Z"/>
        <path class="cls-31" d="M276.67,151.03l-6.5-7c.13-.07.67-1.72,2.75-1,3.73,1.29,3.6,7.55,3.75,8Z"/>
        <g>
          <path class="cls-26" d="M131.69,83.54c-.26,3.74-11.65,3.73-16.75,7-5.47-2.44-14.44-4.12-11.25,4.5-1.96.75-4.06,1.66-6,2.5-2.39-2.63-5.07-1.57-4,1.5-4.04,1.88-10.43,5.66-14.5,8-.92-.14,1.12-2.12-1-2,.94-.77,1.83-1.49,1.25-2l-8-1c-1.55-1.39,31.16-20.22,33.25-21.5.24-.15,2.13-.45,4-2,.09-.07,1.7.27,1.5-1.75-1.14-1.44-2.14-3.14-3-4.75.8-1.24,2.16,1.85,3.5,4.75,3.9-.73,5.77,6.38,10.75,10.25,4.88-.56,9.42-3.26,10.25-3.5Z"/>
          <path class="cls-15" d="M97.69,97.54c-2.18.95-3.81,1.41-4,1.5-1.07-3.07,1.61-4.13,4-1.5Z"/>
        </g>
        <g>
          <path class="cls-16" d="M244.17,49.05c-.37.95,3.32,1.51,7.25,3.5,8.12,4.12,53.47,33.03,56.24,38.75,2.44,5.04.6,9.23,2.5,8.75-.02.33.04.67,0,1-1.06.79-2.4.91-2.5,1-15.12-10.06-31.38-18.38-46.74-28-10.75-6.73-21.17-15.37-32.25-21-.78-.4-1.61-.97-1.5-2,4.76-3.22,11.57-2.93,17-2Z"/>
          <path class="cls-8" d="M310.17,101.04c-1.06,9.04-14.11,23.76-18.5,32.5-1.17-.8-2.32-1.74-3.5-2.5,4.28-3.91,18.23-27.8,19.5-29,.1-.09,1.44-.21,2.5-1Z"/>
          <path class="cls-8" d="M228.68,53.05q-7.5,14.25-15,28.5c-1.24-.73-3.13-1.35-4-2,3.66-5.94,13.02-25.46,17.5-28.5-.11,1.03.72,1.6,1.5,2Z"/>
          <path class="cls-22" d="M307.67,102.04c-1.27,1.2-15.21,25.09-19.5,29-6.21-3.99-12.53-7.62-18.5-12-1.82-1.33-5.72-3.77-6-4-.41-.34-1.1-1.25-2-1.75,9.6-4.09-3.14-4.08-5,1.25-2.17-1.61-4.74-2.95-7-4.5-1.62-8.84-9.05-8.75-6-4.5-2.05-1.31-4.4-2.73-6.5-4l4.25-.5c3.31-6-2.92-5.39-11.25-10-5.53-3.06-11.05-6.28-16.5-9.5q7.5-14.25,15-28.5c11.07,5.63,21.5,14.27,32.25,21,15.37,9.62,31.63,17.93,46.74,28Z"/>
        </g>
        <path class="cls-52" d="M135.69,82.54c-.47,1.67-2.3.72-3.5,1,2.15-3.29,3.27-1.01,3.5-1Z"/>
        <path class="cls-32" d="M176.68,83.04h-2c.66.03,1.34-.05,2,0Z"/>
        <g>
          <path class="cls-43" d="M288.17,131.04c1.18.76,2.33,1.7,3.5,2.5.36.25,1.01.39,1,1-1.11,1.03-1.14-1.16-3,1.75.18,1.39.31,1.83,0,3.25l-.25-1c-1.53,1.43-1.58,3.8-2.75,5.5-.85-1.34-1.62-2.68-2.5-4-2.37-3.54-4.35-8.08-8.5-10-3.35-4.19-3.35.35-5-4.5-.65-1.9-1.28-4.5-1-6.5,5.97,4.38,12.29,8.01,18.5,12Z"/>
          <path class="cls-22" d="M289.67,139.54c-.48,2.17-.88,4.36-1.5,6.5-.07-.11-.45-.36-1.5-2,1.17-1.7,1.22-4.07,2.75-5.5l.25,1Z"/>
          <path class="cls-25" d="M263.67,115.04c.28.23,4.18,2.67,6,4-.28,1.99.35,4.6,1,6.5-2.56-.38-6.77-5.6-10.5-8.5,2.42-1.16.48-3.26,3.5-2Z"/>
          <path class="cls-22" d="M284.17,140.04c-4.19-1.78-5.92-6.78-8.5-10,4.14,1.92,6.13,6.46,8.5,10Z"/>
          <path class="cls-43" d="M263.67,115.04c-3.02-1.26-1.08.84-3.5,2-1.15-.89-2.34-1.64-3.5-2.5,1.86-5.33,14.6-5.34,5-1.25.9.5,1.59,1.41,2,1.75Z"/>
        </g>
        <path class="cls-51" d="M249.67,110.04c-2.01-1.38-3.98-3.2-6-4.5-3.05-4.25,4.38-4.34,6,4.5Z"/>
        <g>
          <path class="cls-32" d="M187.68,90.54c-1.64,3.79,5.42,7.65,5,2.5,7.43-2.9,16.24,5.28,22.75,8.5,1.19.59,3.55.81,5,1.5.34.16-1.48.44,6,4,.63.3,2.84-1.07,12.75,5-2.39,2.37,2.41,4.06,5,6,.71.53,1.44.45,1.5.5,5.79,4.27,11.56,8.78,17,13.5-6.24-.43-5.01-4.39-7.25-4-4.24.74,4.52,4.56,1.75,6.5-13.08-12.34-31.52-23.16-48.49-29,.24-.82-.72-1.28-1.25-1.5-8.75-3.61-29.31-6.54-39.5-7.5-.1-.91,1.33-2.81,1.75-4,.31,1.75,11.47,1.44,12.5-.25.17-.29-.11-2.14,0-3.25,1.98.38,3.61.96,5.5,1.5Z"/>
          <path class="cls-31" d="M192.68,93.04c.42,5.15-6.64,1.29-5-2.5,2.09.6,4.71-1.1,5,2.5Z"/>
          <path class="cls-32" d="M244.17,118.04c-2.59-1.94-7.39-3.63-5-6,3.8,2.32,6.89,3.07,5,6Z"/>
          <path class="cls-35" d="M201.43,95.54c2.51-.42,5.58,2.82,2,3.5-2.84.54-5.35-2.94-2-3.5Z"/>
        </g>
        <g>
          <g>
            <path class="cls-22" d="M163.68,82.04c-1.38.82-3,.48-4.5.5.11-7.19.28-14.24-1.5-21.25-1.28-1.75-13.48-.18-16.25-.75-5.22-1.08-8.76-12.59,1.5-14,1.87-.26,34.23-.34,36,0,6.16,1.18,7.02,10.26,2.5,13-3.81,2.31-16.93.09-17.75,1.25v21.25Z"/>
            <path class="cls-44" d="M141.94,50.05c1.71-.7,35.28-.69,37,0,.55.22.98,1.19.75,1.75-.71,1.75-36,1.46-37.75.75-1.02-.42-1.02-2.08,0-2.5Z"/>
          </g>
          <g>
            <path class="cls-12" d="M143.69,223.03c.27-2.74,1.26-5.08,2.5-7.5.42-.82,2.47-3.94,3-4.5,1.2-1.27,2.77-2.49,4.5-3-.07.44.78,1.99,0,3.75-4.14,3.6-6.91,11.96-10,11.25Z"/>
            <g>
              <path class="cls-22" d="M172.68,100.54v5.5c-.33,2.82.25,6.52,0,9.5-.09,1.09-.28,2.95-.5,4-.83,4.06-.79,1.62-1.5,2-1.04-4.71-.15-10.92-4.25-14-1.35,1.02,2.79,12.88,3.25,15,.46,2.12,1.38,2.18,2,11,.25,3.63-.24,7.36,0,11,.11,1.65.24,2.86.5,4.5-.32,6.52.23,12.99.5,19.5.33,8.07.68,15.95,1.5,24,.48,4.71.75,9.51,1,14.25.66,2.5,3.07,3.04,3.5,3.75.96,1.58,1.6,3.5,2.5,5,1.31,5.39,1.33,10.57,0,16-8.04,19.79-39.97,16.53-37.5-8.5,3.08.71,5.86-7.65,10-11.25.78-1.76-.07-3.31,0-3.75,3.28-21.19,4.84-42.72,7.5-63.99.09-.36.3-.61.5-1.5.47-2.15.65-4.75,1-7,.72-4.56,1.09-9.21,2-13.75-2.64-.07-4.75-.73-5-.75-.09-2.73.59-4.82-1.25-7l-.75,7c-.33-.03-.56.68-2,.5-2.31-.28-3.06.82-4-2,2.61-4.76,11.4-7.88,0-8.25-.22-.35,2.09-4.49,2.5-5.25.87-1.63,2.21-3.07,2.5-5,.07-.05.55.11.5-.5,4.59-.12,11.1-.28,15.5,0Z"/>
              <g>
                <g>
                  <path class="cls-13" d="M167.43,196.03c1.45,16.43-4.81,19.77-4.75,1.75l4.75-1.75Z"/>
                  <g>
                    <path class="cls-38" d="M165.18,184.53l.5-25.5c4.08.83,1.06,21.31,2,25.75-1.27.81-2.1-.21-2.5-.25Z"/>
                    <path class="cls-19" d="M165.68,159.03l-.5,25.5c-.1,0-.93,1.33-2-.25,1.36-3.61-1.14-25.99,2.5-25.25Z"/>
                  </g>
                </g>
                <path class="cls-43" d="M170.68,121.54c-.06.03.4,1.26-1,1-.46-2.12-4.6-13.97-3.25-15,4.1,3.08,3.21,9.29,4.25,14Z"/>
                <path class="cls-24" d="M159.68,121.04c-.1,0-.6.14-2,0l.75-7c1.84,2.18,1.16,4.27,1.25,7Z"/>
              </g>
            </g>
          </g>
        </g>
        <g>
          <path class="cls-40" d="M37.7,176.53c-7.17,15.58-11.44,32.75-10.5,49.99-.12-.03-.12.92-2.5-.25v-12.75c.81-8.16,2.59-16.18,5-24,.72-2.33,1.63-4.27,2.5-6.5,1.22,6.06,2.91-6.1,5.5-6.5Z"/>
          <path class="cls-6" d="M294.67,224.03c.04.83-.03,1.67,0,2.5h-14c.63-11.56-.87-7.48-1-8.25-.73-4.25-.97-8.81-2-13-8.71-35.58-41.05-68.83-75.24-81.24-9.62-3.49-20.17-4.82-29.75-8.5.25-2.98-.33-6.68,0-9.5.08-.72-.27-2.63.25-3,69.34,6.02,112.52,53.09,121.74,120.99Z"/>
          <path class="cls-49" d="M294.67,224.03c-9.22-67.9-52.4-114.97-121.74-120.99-.52.37-.17,2.28-.25,3v-5.5c32,2.06,67.18,18.03,88.99,41.74,21.73,23.63,31.47,49.96,33,81.74Z"/>
          <path class="cls-52" d="M157.18,100.54c.05.61-.43.45-.5.5-3.97,2.63-15.91,2.47-21.25,3.5-35.68,6.91-74.03,30.21-92.74,61.99-1.82,3.09-3.5,6.73-5,10-2.59.4-4.28,12.56-5.5,6.5,19.43-49.95,72.59-81.17,124.98-82.49Z"/>
          <path class="cls-7" d="M151.69,119.54c.94,2.82,1.69,1.72,4,2,2.51,7.35-10.09,3.24-22.75,5.5-10.6,1.89-29.15,11.09-35.75,19.75-11.89,15.61-15.79,74.06-11.5,94.49l-23.5,1.25c-1.96.05-9.79-.22-10.25,0-1.08.51-1.08,2.49,0,3,1.53.72,29.2-.9,33.75-1,6.35.6,3,1.79,4.5,5.75,12.8,33.75,41.69,54.27,78.24,51.24,14.11-1.17,29.84-8.33,41-17,20.3-15.76,22.03-29.02,26.25-49.74.15-.75,2.27-4.69,2.5-6,2.95-16.85,1.03-33.75-4-49.99-6.32-11.83-10.65-26.32-22.25-33.75-3.28-2.1-13.03-6.51-16.5-7.5-2.42-.69-5.01-.29-6-.5-2.38-.51-5.48-2.15-8-2.5-5.03-.69-9.27,1.61-9.75-1-.61-8.82-1.54-8.88-2-11,1.4.26.94-.97,1-1,.71-.38.67,2.06,1.5-2,15.15,5.24,27.8,6.33,42.74,14.5,17.87,9.77,46.03,38.54,53.74,57.24,3.22,7.81,6.52,25.62,7,34.5-1.42,6.52-.71,19.77-1.5,24.5-.15.89-2.6.43-.5,2-.21.51-1.28-.01-1.5.5-16.59,38.38-31.44,56.02-70.24,73.74l-28.5,10.5-4.75,4c-.08-1.26-.99-5.63-1.5-6.5-1.47-2.52-6.74-2.57-9.25-2-4.03.91-3.57,6.23-6.5,6.5-28.27-7.41-39.24-8.7-61.49-28.5-1.28-1.14-3.24-1.94-4.75-2.75-12.86-16.72-20.18-26.1-26-46.99-.45-1.62-2.07-13.9-2.5-14.5-.29-.41-11.42-.21-5.25-4.25,1.19-.78,2.9-.25,3.25-.75.52-.74-1.89-14.41-2-18-1.03-34.12,8.6-57.5,35.75-78.24,22.86-17.47,30.7-17.69,54.99-25.5,3.21-1.03,6.14-3.44,6.5-3.5,4.35-.74,1.08,1.51,1.75,3.5Z"/>
          <path class="cls-37" d="M154.19,106.04c-.41.76-2.72,4.9-2.5,5.25,11.4.37,2.61,3.49,0,8.25-.67-1.99,2.6-4.24-1.75-3.5-.36.06-3.29,2.47-6.5,3.5-24.3,7.81-32.13,8.03-54.99,25.5-27.15,20.74-36.78,44.12-35.75,78.24.11,3.59,2.52,17.26,2,18-.35.5-2.06-.03-3.25.75-6.17,4.04,4.96,3.84,5.25,4.25.43.6,2.05,12.88,2.5,14.5,5.82,20.9,13.14,30.27,26,46.99,1.51.81,3.47,1.61,4.75,2.75,22.25,19.79,33.22,21.09,61.49,28.5,2.93-.27,2.47-5.59,6.5-6.5,2.51-.57,7.78-.52,9.25,2-15.89-5.2-13.99,6.61-13,18.75-63.42-.06-117.95-45.18-126.98-108.49l14.25-.25.75-.75c-.46-3.3-1.35-6.5-2-9.75-.18-.9-.25-1.55-.5-2.5-.06-.22.31-3.95-.75-4.5-3.98-.09-7.79.34-11.75-.5-.94-17.25,3.33-34.41,10.5-49.99,1.5-3.27,3.18-6.91,5-10l6.75,15c1.45-2.97,2.08-2.47,2.75-3.25,12.98-15.12,8.6-14.8,27.75-30.25,1.13-.91.55-1.65,1-2,.54-.42,9.71-4.64,10.5-8,3.35.07,6.19-3.3,9-5,.95-.57,7.07-2.86,7.5-3.5.24-.36-4.37-5.98,3.5-2,.44-2.13,8.99-1.94,10-5.5,4.09.04,10.4-2.37,14.5-4,.73-.29.71-1.38,1-1.5.14-.06,1.33.78,3,0,9.88-4.58,7.22-6.74,14.25-10.5Z"/>
          <path class="cls-37" d="M280.67,226.53c-.08,1.44.06,2.73,0,4,0,.11-.93-.28-1,2-.05,1.47-.22,11.17.25,11.5l12.25.75c-6.93,51.4-45.49,90.69-94.74,104.24-3.95,1.09-29.28,6.22-31,5-.31-.22-.42-4.36-.25-4.75.33-.73,3.14,1.88,2.5-8.25l4.75-4,28.5-10.5c38.8-17.72,53.65-35.36,70.24-73.74.22-.51,1.29.01,1.5-.5-2.1-1.57.35-1.11.5-2,.79-4.72.08-17.97,1.5-24.5-.48-8.88-3.78-26.69-7-34.5-7.72-18.7-35.87-47.47-53.74-57.24-14.94-8.17-27.6-9.26-42.74-14.5.22-1.05.41-2.91.5-4,9.58,3.68,20.13,5.01,29.75,8.5,34.19,12.41,66.53,45.66,75.24,81.24,1.03,4.19,1.27,8.75,2,13,.13.77,1.63-3.31,1,8.25Z"/>
          <g>
            <path class="cls-22" d="M27.2,226.53c3.96.84,7.77.41,11.75.5,1.06.55.69,4.28.75,4.5-10.64-.79-10.73,3.53.5,2.5.65,3.24,1.54,6.45,2,9.75l-.75.75-14.25.25c9.03,63.3,63.57,108.43,126.98,108.49-.99-12.13-2.89-23.95,13-18.75.51.87,1.42,5.24,1.5,6.5.65,10.13-2.17,7.52-2.5,8.25-.17.39-.06,4.53.25,4.75,1.71,1.22,27.04-3.91,31-5,49.24-13.55,87.81-52.83,94.74-104.24l-12.25-.75c-.47-.33-.3-10.03-.25-11.5,13.47.12,15.42-2.05,1-2,.06-1.27-.08-2.56,0-4h14c.21,6.84.78,13.4,0,20.25-2.67,23.4-16.03,48.65-32,65.74-16.2,17.35-35.16,29.27-57.74,36.5-93.08,29.78-190.37-33.61-180.23-135.48v12.75c2.38,1.17,2.38.22,2.5.25Z"/>
            <path class="cls-43" d="M162.43,337.51c3.92-1.82,2.13,10.77,1.5,11-2.82,1.01-2.94-10.33-1.5-11Z"/>
            <path class="cls-43" d="M39.7,231.52c.25.95.32,1.6.5,2.5-11.23,1.03-11.14-3.29-.5-2.5Z"/>
            <path class="cls-43" d="M279.67,232.52c.07-2.28.99-1.89,1-2,14.42-.05,12.47,2.12-1,2Z"/>
            <path class="cls-43" d="M156.43,339.01c2.93-2.27,2.21,11.5-.25,7.75-.21-.32-.06-7.51.25-7.75Z"/>
          </g>
          <path class="cls-9" d="M85.69,244.52c3.13-.07,6.32-.44,9.5-.5,9.97-.19,8.65,4.3,14.75,10,12.69,11.86,26.53,24.09,43.99,27.5,9.96-1.36,18.11,1.14,27.5-4,6.68-3.66,15.69-15.91,17.25-23.25,6.65-1.37.51-5.66,6.5-10.5.63-6.92,4.62-15.3,4-21.5,3.27-1.02,8.03.98,10-1.25.05-.06.85.02.5-1.5-.6-2.62-2.27-.52-3-2.75-1.53-4.7-2.03-39.35-16.5-56.49-5.88-6.96-19.43-14.53-28.5-15.75-.24-3.64.25-7.37,0-11,.47,2.61,4.72.31,9.75,1,2.52.35,5.62,1.99,8,2.5.99.21,3.58-.19,6,.5,3.47.99,13.22,5.4,16.5,7.5,11.6,7.43,15.93,21.92,22.25,33.75,5.03,16.24,6.95,33.15,4,49.99-.23,1.31-2.35,5.25-2.5,6-4.21,20.72-5.94,33.98-26.25,49.74-11.16,8.66-26.88,15.83-41,17-36.55,3.02-65.44-17.49-78.24-51.24-1.5-3.96,1.85-5.15-4.5-5.75Z"/>
          <path class="cls-9" d="M162.68,135.54c-.35,2.25-.53,4.85-1,7-12.3.26-19.81.41-29.25,9-10,9.1-12.96,21.58-9.75,34.75,2.03,8.32,15.28,26.68,23.5,29.25-1.24,2.42-2.23,4.75-2.5,7.5-2.48,25.03,29.45,28.29,37.5,8.5,1.43-3.52,2.22-6.59,2.25-10.5h35.75c-1.97,2.23-6.73.23-10,1.25.62,6.19-3.37,14.58-4,21.5-5.99,4.84.15,9.13-6.5,10.5-1.56,7.34-10.57,19.59-17.25,23.25-9.38,5.14-17.54,2.64-27.5,4-17.46-3.41-31.3-15.63-43.99-27.5-6.1-5.7-4.78-10.19-14.75-10,3.66-.07,7.34.08,11,0,55.06-1.2,55.99-1.46,0-1.5-6.36,0-12.66.47-19,.5,1.26-2.7,11.91.95,13-3.25,4.05-34.17-6.71-79.97,31.25-98.24,2.02-.97,11.1-4.23,13-4.5,7.46-1.06,15.31,1.73,18.25-1.5Z"/>
          <path class="cls-9" d="M159.68,121.04c.25.02,2.36.68,5,.75-.91,4.54-1.28,9.19-2,13.75-2.94,3.23-10.79.44-18.25,1.5-1.89.27-10.97,3.53-13,4.5-37.96,18.27-27.2,64.06-31.25,98.24-1.09,4.2-11.74.55-13,3.25-8.3.04-16.65-.73-25-.5l23.5-1.25c-4.29-20.43-.39-78.88,11.5-94.49,6.59-8.65,25.15-17.86,35.75-19.75,12.65-2.26,25.26,1.85,22.75-5.5,1.44.18,1.67-.53,2-.5,1.4.14,1.9,0,2,0Z"/>
          <path class="cls-6" d="M154.19,106.04c-7.03,3.76-4.36,5.92-14.25,10.5-1.67.78-2.86-.06-3,0-.28.12-.27,1.21-1,1.5-4.1,1.63-10.41,4.04-14.5,4-1.01,3.56-9.56,3.37-10,5.5-7.87-3.98-3.26,1.64-3.5,2-.43.64-6.55,2.93-7.5,3.5-2.81,1.7-5.65,5.07-9,5-.79,3.36-9.96,7.58-10.5,8-.45.35.13,1.09-1,2-19.15,15.44-14.76,15.13-27.75,30.25-.67.78-1.3.28-2.75,3.25l-6.75-15c18.71-31.78,57.06-55.09,92.74-61.99,5.34-1.03,17.28-.87,21.25-3.5-.29,1.93-1.63,3.37-2.5,5Z"/>
          <path class="cls-1" d="M219.68,219.53h-36.75c-.43-1.41-.99-2.73-1.75-4-.9-1.5-1.54-3.42-2.5-5,4.04-3.43,13.18-9.25,16.5-13.75,12.02-16.32-4.15-39.56-22.25-41.74-.16-2.05-.43-3.97-.75-6-.26-1.64-.39-2.85-.5-4.5,9.07,1.22,22.62,8.78,28.5,15.75,14.47,17.14,14.97,51.79,16.5,56.49.73,2.23,2.4.13,3,2.75Z"/>
          <path class="cls-26" d="M153.69,208.03c-1.73.51-3.3,1.72-4.5,3-.61.05-.46-.44-.5-.5,2.28-2.37,4.37-3,4.5-3.25.38-.71.46-13.82,2-16-5.52-1.31-12.25,1.77-17.25-.75-7.26-3.65-4.54-18.09-2.25-24.25,7.27-19.52,20.73-14.28,23.75-16.25.71-1.65.72-3.24,1.25-5,.4-1.34.49-.95.5-1-2.66,21.27-4.22,42.8-7.5,63.99Z"/>
          <path class="cls-4" d="M178.68,210.53c-.43-.71-2.84-1.25-3.5-3.75-.25-4.74-.52-9.53-1-14.25l13.75,3.5c4.72-6.85,6.54-11.59,1.75-19.25-2.83-4.53-15.14-11.97-17-8.25-.27-6.5-.82-12.97-.5-19.5.32,2.03.59,3.95.75,6,18.1,2.18,34.27,25.42,22.25,41.74-3.31,4.5-12.46,10.32-16.5,13.75Z"/>
          <path class="cls-4" d="M161.68,142.54c-.2.89-.41,1.14-.5,1.5-.01.05-.1-.34-.5,1-3.72.8-9.27.63-12.75,1.5-17.48,4.39-24.68,33.29-15.25,47.24,3.31,4.9,14.47,12.15,15,13,.76,1.22.14,2.48,1,3.75.04.06-.11.55.5.5-.53.56-2.58,3.67-3,4.5-8.22-2.56-21.47-20.93-23.5-29.25-3.21-13.16-.25-25.64,9.75-34.75,9.44-8.59,16.95-8.74,29.25-9Z"/>
          <path class="cls-24" d="M174.18,192.53c-.82-8.05-1.17-15.93-1.5-24,1.86-3.72,14.17,3.72,17,8.25,4.79,7.66,2.97,12.4-1.75,19.25l-13.75-3.5Z"/>
          <path class="cls-5" d="M219.68,219.53c.35,1.52-.45,1.44-.5,1.5h-35.75c-.03,3.9-.82,6.97-2.25,10.5,1.33-5.43,1.31-10.61,0-16,.76,1.26,1.32,2.59,1.75,4h36.75Z"/>
          <g>
            <path class="cls-17" d="M62.2,242.52c8.35-.23,16.7.54,25,.5,6.33-.03,12.64-.5,19-.5v1.5c-3.66.08-7.34-.07-11,0-3.18.06-6.37.43-9.5.5-4.55.1-32.22,1.72-33.75,1-1.08-.51-1.08-2.49,0-3,.46-.22,8.29.05,10.25,0Z"/>
            <path class="cls-45" d="M106.19,244.02v-1.5c55.99.04,55.06.3,0,1.5Z"/>
          </g>
          <path class="cls-4" d="M160.68,145.03c-.53,1.76-.54,3.35-1.25,5-3.02,1.97-16.48-3.27-23.75,16.25-2.29,6.15-5.01,20.6,2.25,24.25,5,2.52,11.73-.56,17.25.75-1.54,2.18-1.62,15.29-2,16-.13.25-2.22.88-4.5,3.25-.86-1.27-.24-2.53-1-3.75-.53-.85-11.69-8.1-15-13-9.44-13.96-2.24-42.85,15.25-47.24,3.48-.87,9.03-.7,12.75-1.5Z"/>
        </g>
      </g>
    </g>
  </g>
</svg>